<mxfile host="app.diagrams.net" modified="2024-01-27T23:08:33.022Z" agent="Mozilla/5.0 (Windows NT 10.0; Win64; x64) AppleWebKit/537.36 (KHTML, like Gecko) Chrome/120.0.0.0 Safari/537.36" version="22.1.21" etag="re-eVnex9Ehtosna9vI8" type="github">
  <diagram name="Page-1" id="8BUAlzjswqWf4yLGmGIH">
    <mxGraphModel>
      <root>
        <mxCell id="0" />
        <mxCell id="1" parent="0" />
      </root>
    </mxGraphModel>
  </diagram>
</mxfile>
